<svg width="16" height="17" viewBox="0 0 16 17" fill="none" xmlns="http://www.w3.org/2000/svg">
<g clip-path="url(#clip0_348_42)">
<path fill-rule="evenodd" clip-rule="evenodd" d="M15.5116 3.2907V13.7093C15.5116 15.2505 14.2621 16.5 12.7209 16.5H3.7907C2.24947 16.5 1 15.2505 1 13.7093V3.2907C1 1.74947 2.24947 0.5 3.7907 0.5H12.7209C14.2621 0.5 15.5116 1.74947 15.5116 3.2907ZM11.9767 6.45349H4.53488C4.22679 6.45349 3.97674 6.70353 3.97674 7.01163C3.97674 7.31972 4.22679 7.56977 4.53488 7.56977H11.9767C12.2848 7.56977 12.5349 7.31972 12.5349 7.01163C12.5349 6.70353 12.2848 6.45349 11.9767 6.45349ZM11.9767 9.43023H4.53488C4.22679 9.43023 3.97674 9.68028 3.97674 9.98837C3.97674 10.2965 4.22679 10.5465 4.53488 10.5465H11.9767C12.2848 10.5465 12.5349 10.2965 12.5349 9.98837C12.5349 9.68028 12.2848 9.43023 11.9767 9.43023ZM8.25581 3.47674H4.53488C4.22679 3.47674 3.97674 3.72679 3.97674 4.03488C3.97674 4.34298 4.22679 4.59302 4.53488 4.59302H8.25581C8.56391 4.59302 8.81395 4.34298 8.81395 4.03488C8.81395 3.72679 8.56391 3.47674 8.25581 3.47674ZM11.9767 12.407H4.53488C4.22679 12.407 3.97674 12.657 3.97674 12.9651C3.97674 13.2732 4.22679 13.5233 4.53488 13.5233H11.9767C12.2848 13.5233 12.5349 13.2732 12.5349 12.9651C12.5349 12.657 12.2848 12.407 11.9767 12.407Z" fill="#666666"/>
</g>
<defs>
<clipPath id="clip0_348_42">
<rect width="16" height="16" fill="white" transform="translate(0 0.5)"/>
</clipPath>
</defs>
</svg>
