<svg width="16" height="17" viewBox="0 0 16 17" fill="none" xmlns="http://www.w3.org/2000/svg">
<g clip-path="url(#clip0_348_13)">
<path d="M6.76177 7.3331L8.06606 6.1381C8.4227 5.81071 8.67336 5.38422 8.78588 4.91336C8.8984 4.4425 8.86765 3.94876 8.69756 3.4955L8.14136 2.01026C7.93355 1.45577 7.52217 1.00137 6.99101 0.739629C6.45986 0.477887 5.84889 0.428497 5.28259 0.601521C3.19863 1.2391 1.5968 3.17611 2.08986 5.47623C2.41411 6.98941 3.03469 8.88878 4.21025 10.9096C5.38825 12.9353 6.73383 14.4314 7.88754 15.4831C9.62903 17.0679 12.1186 16.672 13.7204 15.1783C14.1496 14.7778 14.4099 14.2288 14.4485 13.6431C14.4871 13.0574 14.301 12.479 13.9281 12.0256L12.908 10.7869C12.6003 10.4123 12.1876 10.1384 11.7229 10.0003C11.2583 9.86222 10.7629 9.86634 10.3006 10.0121L8.61498 10.5428C8.17942 10.0938 7.79792 9.59533 7.47828 9.05758C7.16983 8.51378 6.9292 7.93423 6.76177 7.33188" fill="white"/>
</g>
<defs>
<clipPath id="clip0_348_13">
<rect width="16" height="16" fill="white" transform="translate(0 0.5)"/>
</clipPath>
</defs>
</svg>
