<svg width="16" height="17" viewBox="0 0 16 17" fill="none" xmlns="http://www.w3.org/2000/svg">
<g clip-path="url(#clip0_348_6)">
<path fill-rule="evenodd" clip-rule="evenodd" d="M16 9.57088V16C16 16.1326 15.9473 16.2598 15.8536 16.3536C15.7598 16.4473 15.6326 16.5 15.5 16.5H9.07084C8.93824 16.5 8.81106 16.4473 8.71729 16.3536C8.62352 16.2598 8.57084 16.1326 8.57084 16V9.57088C8.57084 9.43827 8.62352 9.31109 8.71729 9.21732C8.81106 9.12355 8.93824 9.07088 9.07084 9.07088H15.5C15.6326 9.07088 15.7598 9.12355 15.8536 9.21732C15.9473 9.31109 16 9.43827 16 9.57088ZM0.5 0.5H6.92912C7.06173 0.5 7.18891 0.552678 7.28268 0.646447C7.37645 0.740215 7.42912 0.867392 7.42912 1V7.42912C7.42912 7.56173 7.37645 7.68891 7.28268 7.78268C7.18891 7.87645 7.06173 7.92912 6.92912 7.92912H0.5C0.367392 7.92912 0.240215 7.87645 0.146447 7.78268C0.0526784 7.68891 0 7.56173 0 7.42912V1C0 0.867392 0.0526784 0.740215 0.146447 0.646447C0.240215 0.552678 0.367392 0.5 0.5 0.5ZM7.42912 9.57088V16C7.42912 16.1326 7.37645 16.2598 7.28268 16.3536C7.18891 16.4473 7.06173 16.5 6.92912 16.5H0.5C0.367392 16.5 0.240215 16.4473 0.146447 16.3536C0.0526784 16.2598 0 16.1326 0 16V9.57088C0 9.43827 0.0526784 9.31109 0.146447 9.21732C0.240215 9.12355 0.367392 9.07088 0.5 9.07088H6.92912C7.06173 9.07088 7.18891 9.12355 7.28268 9.21732C7.37645 9.31109 7.42912 9.43827 7.42912 9.57088ZM9.07084 0.5H15.5C15.6326 0.5 15.7598 0.552678 15.8536 0.646447C15.9473 0.740215 16 0.867392 16 1V7.42912C16 7.56173 15.9473 7.68891 15.8536 7.78268C15.7598 7.87645 15.6326 7.92912 15.5 7.92912H9.07084C8.93824 7.92912 8.81106 7.87645 8.71729 7.78268C8.62352 7.68891 8.57084 7.56173 8.57084 7.42912V1C8.57084 0.867392 8.62352 0.740215 8.71729 0.646447C8.81106 0.552678 8.93824 0.5 9.07084 0.5Z" fill="white"/>
</g>
<defs>
<clipPath id="clip0_348_6">
<rect width="16" height="16" fill="white" transform="translate(0 0.5)"/>
</clipPath>
</defs>
</svg>
