<svg width="16" height="16" viewBox="0 0 16 16" fill="none" xmlns="http://www.w3.org/2000/svg">
<path d="M0 5.42308V4.5C0.000895679 3.76583 0.292941 3.06198 0.812078 2.54285C1.33122 2.02371 2.03506 1.73166 2.76923 1.73077H3.69231V2.65385C3.69231 2.98027 3.82198 3.29332 4.05279 3.52413C4.28361 3.75495 4.59666 3.88462 4.92308 3.88462C5.2495 3.88462 5.56255 3.75495 5.79336 3.52413C6.02418 3.29332 6.15385 2.98027 6.15385 2.65385V1.73077H9.84615V2.65385C9.84615 2.98027 9.97582 3.29332 10.2066 3.52413C10.4375 3.75495 10.7505 3.88462 11.0769 3.88462C11.4033 3.88462 11.7164 3.75495 11.9472 3.52413C12.178 3.29332 12.3077 2.98027 12.3077 2.65385V1.73077H13.2308C13.9649 1.73166 14.6688 2.02371 15.1879 2.54285C15.7071 3.06198 15.9991 3.76583 16 4.5V5.42308H0ZM4.30769 2.65385C4.30769 2.81706 4.37253 2.97358 4.48793 3.08899C4.60334 3.2044 4.75987 3.26923 4.92308 3.26923C5.08629 3.26923 5.24281 3.2044 5.35822 3.08899C5.47363 2.97358 5.53846 2.81706 5.53846 2.65385V1.11538C5.53846 0.952174 5.47363 0.795649 5.35822 0.680242C5.24281 0.564835 5.08629 0.5 4.92308 0.5C4.75987 0.5 4.60334 0.564835 4.48793 0.680242C4.37253 0.795649 4.30769 0.952174 4.30769 1.11538V2.65385ZM10.4615 1.11538V2.65385C10.4615 2.81706 10.5264 2.97358 10.6418 3.08899C10.7572 3.2044 10.9137 3.26923 11.0769 3.26923C11.2401 3.26923 11.3967 3.2044 11.5121 3.08899C11.6275 2.97358 11.6923 2.81706 11.6923 2.65385V1.11538C11.6923 0.952174 11.6275 0.795649 11.5121 0.680242C11.3967 0.564835 11.2401 0.5 11.0769 0.5C10.9137 0.5 10.7572 0.564835 10.6418 0.680242C10.5264 0.795649 10.4615 0.952174 10.4615 1.11538ZM16 6.03846V12.5C15.9991 13.2342 15.7071 13.938 15.1879 14.4572C14.6688 14.9763 13.9649 15.2683 13.2308 15.2692H2.76923C2.03506 15.2683 1.33122 14.9763 0.812078 14.4572C0.292941 13.938 0.000895679 13.2342 0 12.5V6.03846H16ZM10.2483 9.51815H8.97785L8.58462 8.30985C8.54415 8.18673 8.46584 8.07953 8.36087 8.00353C8.25589 7.92753 8.1296 7.88662 8 7.88662C7.8704 7.88662 7.74411 7.92753 7.63913 8.00353C7.53416 8.07953 7.45585 8.18673 7.41539 8.30985L7.02277 9.51815H5.75169C5.62173 9.51813 5.49509 9.55925 5.38994 9.63563C5.28478 9.712 5.20651 9.81971 5.16633 9.94331C5.12616 10.0669 5.12614 10.2001 5.1663 10.3237C5.20645 10.4473 5.2847 10.555 5.38985 10.6314L6.41785 11.3782L6.02523 12.5865C5.98505 12.7101 5.98504 12.8432 6.02521 12.9668C6.06537 13.0905 6.14364 13.1982 6.24879 13.2746C6.35395 13.351 6.48059 13.3921 6.61057 13.3921C6.74054 13.3921 6.86717 13.3509 6.97231 13.2745L8 12.5277L9.02769 13.2745C9.13283 13.3509 9.25946 13.3921 9.38943 13.3921C9.51941 13.3921 9.64605 13.351 9.75121 13.2746C9.85637 13.1982 9.93463 13.0905 9.9748 12.9668C10.015 12.8432 10.0149 12.7101 9.97477 12.5865L9.58215 11.3782L10.6102 10.6314C10.7153 10.555 10.7936 10.4473 10.8337 10.3237C10.8739 10.2001 10.8738 10.0669 10.8337 9.94331C10.7935 9.81971 10.7152 9.712 10.6101 9.63563C10.5049 9.55925 10.3783 9.51813 10.2483 9.51815Z" fill="white"/>
</svg>
