<svg width="16" height="17" viewBox="0 0 16 17" fill="none" xmlns="http://www.w3.org/2000/svg">
<path d="M2.44752 2.38818H2.44618C2.29485 2.38818 2.15252 2.44717 2.04504 2.55437C1.93638 2.66276 1.87653 2.80709 1.87653 2.96073V11.5461C1.87653 11.8609 2.13366 12.1177 2.44979 12.1185C3.78248 12.1217 6.01527 12.3994 7.55558 14.0113V5.02652C7.55558 4.91979 7.52832 4.81954 7.47687 4.73657C6.21265 2.70064 3.78323 2.3913 2.44752 2.38818Z" fill="#666666"/>
<path d="M14.1235 11.5461V2.96068C14.1235 2.80703 14.0637 2.66271 13.955 2.55432C13.8475 2.44711 13.7051 2.38812 13.5539 2.38812H13.5525C12.2169 2.3913 9.78745 2.70064 8.52318 4.73657C8.47173 4.81954 8.44453 4.91979 8.44453 5.02652V14.0113C9.98484 12.3994 12.2176 12.1216 13.5503 12.1184C13.8664 12.1176 14.1235 11.8609 14.1235 11.5461Z" fill="#666666"/>
<path d="M15.4276 4.36809H15.0124V11.5461C15.0124 12.3499 14.3575 13.0054 13.5524 13.0074C12.422 13.0101 10.5581 13.2311 9.23812 14.4804C11.5211 13.9215 13.9278 14.2848 15.2994 14.5974C15.4707 14.6364 15.6476 14.5961 15.7848 14.4867C15.9216 14.3777 16 14.2146 16 14.0396V4.94054C16.0001 4.6249 15.7432 4.36809 15.4276 4.36809Z" fill="#666666"/>
<path d="M0.987586 11.5461V4.36809H0.572446C0.256863 4.36809 0 4.6249 0 4.94054V14.0394C0 14.2145 0.078438 14.3775 0.215166 14.4866C0.352271 14.5959 0.529079 14.6364 0.700608 14.5972C2.0722 14.2846 4.47894 13.9213 6.76183 14.4803C5.44185 13.231 3.57798 13.01 2.44758 13.0073C1.64256 13.0054 0.987586 12.3499 0.987586 11.5461Z" fill="#666666"/>
</svg>
