<svg width="16" height="17" viewBox="0 0 16 17" fill="none" xmlns="http://www.w3.org/2000/svg">
<g clip-path="url(#clip0_348_102)">
<path d="M2.66667 6.5C3.77124 6.5 4.66667 5.60457 4.66667 4.5C4.66667 3.39543 3.77124 2.5 2.66667 2.5C1.5621 2.5 0.666667 3.39543 0.666667 4.5C0.666667 5.60457 1.5621 6.5 2.66667 6.5Z" fill="#666666"/>
<path d="M4.86 7.88C4.189 8.29871 3.63559 8.8813 3.25188 9.57291C2.86817 10.2645 2.66678 11.0424 2.66667 11.8333H1.33333C0.980036 11.8323 0.64151 11.6915 0.39169 11.4416C0.14187 11.1918 0.00105515 10.8533 0 10.5V9.16667C0.00158273 8.63672 0.212805 8.12893 0.587535 7.7542C0.962265 7.37947 1.47005 7.16825 2 7.16667H3.33333C3.62438 7.16732 3.91178 7.23149 4.17546 7.3547C4.43914 7.47791 4.67276 7.65718 4.86 7.88Z" fill="#666666"/>
<path d="M13.3333 6.5C14.4379 6.5 15.3333 5.60457 15.3333 4.5C15.3333 3.39543 14.4379 2.5 13.3333 2.5C12.2288 2.5 11.3333 3.39543 11.3333 4.5C11.3333 5.60457 12.2288 6.5 13.3333 6.5Z" fill="#666666"/>
<path d="M16 9.16667V10.5C15.9989 10.8533 15.8581 11.1918 15.6083 11.4416C15.3585 11.6915 15.02 11.8323 14.6667 11.8333H13.3333C13.3332 11.0424 13.1318 10.2645 12.7481 9.57291C12.3644 8.8813 11.811 8.29871 11.14 7.88C11.3272 7.65718 11.5609 7.47791 11.8245 7.3547C12.0882 7.23149 12.3756 7.16732 12.6667 7.16667H14C14.5299 7.16825 15.0377 7.37947 15.4125 7.7542C15.7872 8.12893 15.9984 8.63672 16 9.16667Z" fill="#666666"/>
<path d="M8 7.83333C9.47276 7.83333 10.6667 6.63943 10.6667 5.16667C10.6667 3.69391 9.47276 2.5 8 2.5C6.52724 2.5 5.33333 3.69391 5.33333 5.16667C5.33333 6.63943 6.52724 7.83333 8 7.83333Z" fill="#666666"/>
<path d="M12 11.8333V12.5C11.9984 13.0299 11.7872 13.5377 11.4125 13.9125C11.0377 14.2872 10.5299 14.4984 10 14.5H6C5.47005 14.4984 4.96227 14.2872 4.58754 13.9125C4.21281 13.5377 4.00158 13.0299 4 12.5V11.8333C4 10.9493 4.35119 10.1014 4.97631 9.47631C5.60143 8.85119 6.44928 8.5 7.33333 8.5H8.66667C9.55072 8.5 10.3986 8.85119 11.0237 9.47631C11.6488 10.1014 12 10.9493 12 11.8333Z" fill="#666666"/>
</g>
<defs>
<clipPath id="clip0_348_102">
<rect width="16" height="16" fill="white" transform="translate(0 0.5)"/>
</clipPath>
</defs>
</svg>
