<svg width="16" height="17" viewBox="0 0 16 17" fill="none" xmlns="http://www.w3.org/2000/svg">
<path d="M10.3674 9.16409L9.02734 10.5087C8.48394 11.054 7.52781 11.0657 6.97266 10.5087L5.63256 9.16409L0.819562 13.9927C0.998719 14.0756 1.19625 14.125 1.40625 14.125H14.5938C14.8038 14.125 15.0012 14.0756 15.1803 13.9928L10.3674 9.16409Z" fill="white"/>
<path d="M14.5938 2.875H1.40625C1.19625 2.875 0.998719 2.92444 0.819625 3.00728L5.96266 8.16738L5.96375 8.16813L7.63644 9.84675C7.81406 10.0244 8.186 10.0244 8.36362 9.84675L10.0356 8.16922L10.0363 8.16813L10.0374 8.16738L15.1803 3.00725C15.0012 2.92438 14.8038 2.875 14.5938 2.875Z" fill="white"/>
<path d="M0.149562 3.66287C0.056875 3.85031 0 4.05838 0 4.28125V12.7188C0 12.9416 0.0568125 13.1497 0.149531 13.3371L4.97087 8.50016L0.149562 3.66287Z" fill="white"/>
<path d="M15.8504 3.66281L11.0292 8.50016L15.8504 13.3372C15.9431 13.1498 16 12.9417 16 12.7188V4.28125C16 4.05831 15.9431 3.85025 15.8504 3.66281Z" fill="white"/>
</svg>
