<svg width="16" height="17" viewBox="0 0 16 17" fill="none" xmlns="http://www.w3.org/2000/svg">
<g clip-path="url(#clip0_348_57)">
<path d="M7.1824 8.5C7.1824 8.5 5.20778 6.43804 4.05512 6.43804C2.90246 6.43804 0 8.5 0 8.5C0 8.5 2.90249 10.562 4.05515 10.562C5.20781 10.562 7.1824 8.5 7.1824 8.5Z" fill="white"/>
<path d="M8 7.6824C8 7.6824 10.062 5.70778 10.062 4.55512C10.062 3.40246 8 0.5 8 0.5C8 0.5 5.93804 3.40249 5.93804 4.55515C5.93804 5.70781 8 7.6824 8 7.6824Z" fill="white"/>
<path d="M8 9.31757C8 9.31757 5.93804 11.2922 5.93804 12.4448C5.93804 13.5975 8 16.5 8 16.5C8 16.5 10.062 13.5975 10.062 12.4448C10.062 11.2922 8 9.31757 8 9.31757Z" fill="white"/>
<path d="M8.81757 8.5C8.81757 8.5 10.7922 10.562 11.9448 10.562C13.0975 10.562 16 8.5 16 8.5C16 8.5 13.0975 6.43804 11.9448 6.43804C10.7922 6.43804 8.81757 8.5 8.81757 8.5Z" fill="white"/>
<path d="M11.9448 5.49686C12.1656 5.49686 12.4809 5.53037 12.9853 5.71318C13.3987 4.35336 13.6568 2.84318 13.6568 2.84318C12.7873 2.98988 11.6686 3.23271 10.7812 3.4989C10.9691 4.01269 11.0031 4.33213 11.0031 4.55515C11.0031 4.95136 10.8763 5.39064 10.6187 5.8813C11.1094 5.6237 11.5486 5.49686 11.9448 5.49686Z" fill="white"/>
<path d="M2.9989 5.71882C3.51269 5.5309 3.83213 5.49689 4.05515 5.49689C4.45139 5.49689 4.89054 5.62367 5.3813 5.88133C5.12364 5.39057 4.99686 4.95139 4.99686 4.55518C4.99686 4.33448 5.03037 4.01912 5.21318 3.51471C3.85336 3.10138 2.34318 2.84322 2.34318 2.84322C2.48781 3.70289 2.73214 4.82947 2.9989 5.71882Z" fill="white"/>
<path d="M13.0011 11.2812C12.4873 11.4691 12.1679 11.5031 11.9448 11.5031C11.5486 11.5031 11.1094 11.3763 10.6187 11.1187C10.8763 11.6094 11.0031 12.0486 11.0031 12.4448C11.0031 12.6656 10.9696 12.9809 10.7868 13.4853C12.1466 13.8987 13.6568 14.1568 13.6568 14.1568C13.511 13.2906 13.2667 12.1665 13.0011 11.2812Z" fill="white"/>
<path d="M4.05515 11.5031C3.83445 11.5031 3.51909 11.4696 3.01468 11.2868C2.60135 12.6467 2.34318 14.1568 2.34318 14.1568C3.20938 14.011 4.33349 13.7667 5.21882 13.5011C5.0309 12.9873 4.99689 12.6679 4.99689 12.4448C4.99689 12.0486 5.12373 11.6094 5.3813 11.1187C4.89064 11.3763 4.45133 11.5031 4.05515 11.5031Z" fill="white"/>
</g>
<defs>
<clipPath id="clip0_348_57">
<rect width="16" height="16" fill="white" transform="translate(0 0.5)"/>
</clipPath>
</defs>
</svg>
