<svg width="16" height="17" viewBox="0 0 16 17" fill="none" xmlns="http://www.w3.org/2000/svg">
<g clip-path="url(#clip0_348_87)">
<path d="M4.34636 3.7824L3.8127 3.24878C3.62964 3.06572 3.33286 3.06572 3.1498 3.24878L0.137297 6.26128C-0.0457656 6.44434 -0.0457656 6.74112 0.137297 6.92418L0.649203 7.43609L3.99339 4.09187C4.10511 3.98015 4.22311 3.87703 4.34636 3.7824Z" fill="white"/>
<path d="M7.24689 9.37494C6.30158 9.37494 5.41361 9.00756 4.74652 8.34044C4.20092 7.81712 4.20073 6.87478 4.7463 6.35143L7.00589 4.09184C7.01908 4.07865 7.03245 4.06581 7.0458 4.05287C6.21167 3.87203 5.30595 4.10506 4.65627 4.75475L1.31211 8.09897L6.43745 13.2244C7.28533 14.0722 8.63373 14.1074 9.52286 13.3356C10.2699 13.2625 10.8784 12.7101 11.036 11.9905C11.4989 11.8891 11.8925 11.6008 12.134 11.2092L9.49486 8.57003C8.86376 9.09131 8.07745 9.37494 7.24689 9.37494Z" fill="white"/>
<path d="M15.8627 6.26125L12.8502 3.24875C12.6672 3.06568 12.3704 3.06568 12.1873 3.24875L11.6537 3.78237C11.7769 3.877 11.8949 3.98009 12.0066 4.09181L15.3508 7.43603L15.8627 6.92415C16.0458 6.74112 16.0458 6.44431 15.8627 6.26125Z" fill="white"/>
<path d="M7.6688 4.75478L5.4092 7.01443C5.22611 7.1975 5.22636 7.49453 5.40945 7.67759C6.42264 8.69078 8.0712 8.69078 9.08436 7.67759L9.5063 7.25565L12.5188 10.2682L14.688 8.099L11.3437 4.75478C10.3272 3.73828 8.68364 3.73993 7.6688 4.75478Z" fill="white"/>
</g>
<defs>
<clipPath id="clip0_348_87">
<rect width="16" height="16" fill="white" transform="translate(0 0.5)"/>
</clipPath>
</defs>
</svg>
