<svg width="16" height="17" viewBox="0 0 16 17" fill="none" xmlns="http://www.w3.org/2000/svg">
<g clip-path="url(#clip0_348_117)">
<path d="M0 9.58079L0.0622558 9.92637C0.265991 11.052 0.801146 12.0971 1.44897 13.0318L1.64941 13.3207L2.56994 13.014L3.48596 13.93L3.17932 14.8506L3.46813 15.0824C4.40295 15.7301 5.44799 16.234 6.5736 16.4377L6.91918 16.5L7.35228 15.6344H8.64769L9.08079 16.5L9.42637 16.4377C10.552 16.234 11.5971 15.7301 12.5318 15.0824L12.8207 14.8506L12.514 13.93L13.43 13.014L14.3506 13.3207L14.5511 13.0318C15.1988 12.0971 15.734 11.052 15.9377 9.92637L16 9.58079L15.0625 9.14769V7.85228L16 7.41918L15.9377 7.0736C15.734 5.94799 15.1988 4.90295 14.5511 3.96813L14.3506 3.67932L13.43 3.98596L12.514 3.06994L12.8207 2.14941L12.5318 1.94897C11.597 1.30115 10.552 0.765991 9.42637 0.562256L9.08079 0.5L8.64769 1.46875H7.35228L6.91918 0.5L6.5736 0.562256C5.44799 0.765991 4.40282 1.30115 3.46813 1.94897L3.17932 2.14941L3.48596 3.06994L2.56994 3.98596L1.64941 3.67932L1.44897 3.96813C0.801146 4.90295 0.265991 5.94799 0.0622558 7.0736L0 7.41918L0.937498 7.85228V9.14769L0 9.58079ZM7.99998 3.34374C10.8431 3.34374 13.1562 5.65685 13.1562 8.49998C13.1562 11.3431 10.8431 13.6562 7.99998 13.6562C5.15685 13.6562 2.84374 11.3431 2.84374 8.49998C2.84374 5.65685 5.15685 3.34374 7.99998 3.34374Z" fill="#666666"/>
<path d="M9.40623 6.62499C9.40623 7.4016 8.77659 8.03124 7.99998 8.03124C7.22337 8.03124 6.59374 7.4016 6.59374 6.62499C6.59374 5.84838 7.22337 5.21874 7.99998 5.21874C8.77659 5.21874 9.40623 5.84838 9.40623 6.62499Z" fill="#666666"/>
<path d="M10.8125 11.6312V10.8437C10.8125 10.0655 10.4938 9.36241 9.98753 8.85618C9.82933 8.6981 9.64659 8.56639 9.45372 8.44884C9.05284 8.76903 8.55174 8.96873 7.99998 8.96873C7.44713 8.96873 6.94518 8.76829 6.54393 8.44701C5.73302 8.93968 5.18749 9.8231 5.18749 10.8437V11.6312C5.93749 12.3157 6.92186 12.7187 7.99998 12.7187C9.07811 12.7187 10.0625 12.3157 10.8125 11.6312Z" fill="#666666"/>
</g>
<defs>
<clipPath id="clip0_348_117">
<rect width="16" height="16" fill="white" transform="translate(0 0.5)"/>
</clipPath>
</defs>
</svg>
